<svg width="100" height="100" viewBox="0 0 100 100" fill="none" xmlns="http://www.w3.org/2000/svg">
<path d="M0 6.66667C0 2.98477 2.98477 0 6.66667 0H93.3333C97.0152 0 100 2.98477 100 6.66667V93.3333C100 97.0152 97.0152 100 93.3333 100H6.66667C2.98477 100 0 97.0152 0 93.3333V6.66667Z" fill="#72A6F5"/>
<path d="M31 45V64" stroke="#916740" stroke-width="4"/>
<path d="M64.4176 12.1723C64.9054 11.471 65.7849 11.157 66.6067 11.3908L77.3568 14.4493C79.2843 14.9976 79.2971 17.725 77.3747 18.2914L62.2183 22.7571C60.5715 23.2423 59.119 21.5639 59.8355 20.0039L61.4446 16.5007C61.494 16.3933 61.5528 16.2905 61.6203 16.1934L64.4176 12.1723Z" fill="#F71674"/>
<path d="M72.5 62.3633C72.5 62.6252 72.2683 63.3493 71.3221 64.4244C70.4321 65.4354 69.074 66.5663 67.2808 67.626C63.7017 69.741 58.5116 71.5 52.1897 71.5C45.8575 71.5 40.0425 69.7351 35.8283 67.5816C33.7196 66.504 32.0567 65.352 30.946 64.3177C30.3896 63.7996 30.0033 63.3402 29.7659 62.9648C29.6485 62.7791 29.5785 62.6312 29.5395 62.5219C29.5013 62.4147 29.5 62.3648 29.5 62.3633C29.5 62.3633 29.5 62.3633 29.5 62.3633C29.5 61.4676 29.5202 61.0249 29.709 60.6415C29.8587 60.3373 30.239 59.8488 31.5314 59.3427C34.2406 58.2818 40.0108 57.5 52.1897 57.5C60.514 57.5 65.7645 58.2669 68.8818 59.3613C72.0446 60.4717 72.5 61.6961 72.5 62.3633Z" fill="#F8EF25"/>
<path d="M72.5 62.3633C72.5 62.6252 72.2683 63.3493 71.3221 64.4244C70.4321 65.4354 69.074 66.5663 67.2808 67.626C63.7017 69.741 58.5116 71.5 52.1897 71.5C45.8575 71.5 40.0425 69.7351 35.8283 67.5816C33.7196 66.504 32.0567 65.352 30.946 64.3177C30.3896 63.7996 30.0033 63.3402 29.7659 62.9648C29.6485 62.7791 29.5785 62.6312 29.5395 62.5219C29.5013 62.4147 29.5 62.3648 29.5 62.3633C29.5 62.3633 29.5 62.3633 29.5 62.3633C29.5 61.4676 29.5202 61.0249 29.709 60.6415C29.8587 60.3373 30.239 59.8488 31.5314 59.3427C34.2406 58.2818 40.0108 57.5 52.1897 57.5C60.514 57.5 65.7645 58.2669 68.8818 59.3613C72.0446 60.4717 72.5 61.6961 72.5 62.3633Z" fill="#916740"/>
<path d="M72.5 62.3633C72.5 62.6252 72.2683 63.3493 71.3221 64.4244C70.4321 65.4354 69.074 66.5663 67.2808 67.626C63.7017 69.741 58.5116 71.5 52.1897 71.5C45.8575 71.5 40.0425 69.7351 35.8283 67.5816C33.7196 66.504 32.0567 65.352 30.946 64.3177C30.3896 63.7996 30.0033 63.3402 29.7659 62.9648C29.6485 62.7791 29.5785 62.6312 29.5395 62.5219C29.5013 62.4147 29.5 62.3648 29.5 62.3633C29.5 62.3633 29.5 62.3633 29.5 62.3633C29.5 61.4676 29.5202 61.0249 29.709 60.6415C29.8587 60.3373 30.239 59.8488 31.5314 59.3427C34.2406 58.2818 40.0108 57.5 52.1897 57.5C60.514 57.5 65.7645 58.2669 68.8818 59.3613C72.0446 60.4717 72.5 61.6961 72.5 62.3633Z" fill="black" fill-opacity="0.2"/>
<path d="M72.5 62.3633C72.5 62.6252 72.2683 63.3493 71.3221 64.4244C70.4321 65.4354 69.074 66.5663 67.2808 67.626C63.7017 69.741 58.5116 71.5 52.1897 71.5C45.8575 71.5 40.0425 69.7351 35.8283 67.5816C33.7196 66.504 32.0567 65.352 30.946 64.3177C30.3896 63.7996 30.0033 63.3402 29.7659 62.9648C29.6485 62.7791 29.5785 62.6312 29.5395 62.5219C29.5013 62.4147 29.5 62.3648 29.5 62.3633C29.5 62.3633 29.5 62.3633 29.5 62.3633C29.5 61.4676 29.5202 61.0249 29.709 60.6415C29.8587 60.3373 30.239 59.8488 31.5314 59.3427C34.2406 58.2818 40.0108 57.5 52.1897 57.5C60.514 57.5 65.7645 58.2669 68.8818 59.3613C72.0446 60.4717 72.5 61.6961 72.5 62.3633Z" stroke="#C41C1C" stroke-width="3"/>
<path d="M73 61.9362C73 62.4834 72.683 63.4007 71.6465 64.588C70.6418 65.7391 69.1157 66.9591 67.1343 68.0769C63.1759 70.31 57.6386 72 51.5 72C45.3614 72 39.8241 70.31 35.8657 68.0769C33.8843 66.9591 32.3582 65.7391 31.3535 64.588C30.317 63.4007 30 62.4834 30 61.9362C30 61.4686 30.2417 60.7922 31.1839 59.9451C32.1254 59.0986 33.6005 58.2447 35.5939 57.4867C39.5666 55.9761 45.1897 55 51.5 55C57.8103 55 63.4334 55.9761 67.4061 57.4867C69.3995 58.2447 70.8746 59.0986 71.8161 59.9451C72.7583 60.7922 73 61.4686 73 61.9362Z" fill="#F8EF25" stroke="#916740" stroke-width="4"/>
<path d="M74 43V62" stroke="#916740" stroke-width="4"/>
<path d="M29 42V61" stroke="#916740" stroke-width="4"/>
<path d="M10 79.4047C40.1445 90.3969 48.2258 72.2547 89 76.7234" stroke="#474091" stroke-opacity="0.7" stroke-width="4"/>
<path d="M10 71.8911C40.1445 84.4536 48.2258 63.7196 89 68.8268" stroke="#474091" stroke-opacity="0.7" stroke-width="4"/>
<rect x="31" y="44" width="41" height="18" fill="#F8EF25"/>
<path d="M72.8209 42.9261C72.9632 43.1565 72.9925 43.2856 72.9985 43.3232C72.9835 43.3748 72.8663 43.7125 72.0392 44.2673C71.0961 44.8999 69.5998 45.5478 67.5712 46.1233C63.5415 47.2665 57.8588 48 51.5 48C45.1412 48 39.4585 47.2665 35.4288 46.1233C33.4002 45.5478 31.9039 44.8999 30.9608 44.2673C30.1336 43.7125 30.0165 43.3748 30.0015 43.3232C30.0075 43.2856 30.0368 43.1565 30.1791 42.9261C30.3599 42.6333 30.675 42.2575 31.1688 41.8224C32.1582 40.9508 33.6854 39.9989 35.6892 39.1163C39.6841 37.3567 45.2842 36 51.5 36C57.7158 36 63.3159 37.3567 67.3108 39.1163C69.3146 39.9989 70.8418 40.9508 71.8312 41.8224C72.3251 42.2575 72.6401 42.6333 72.8209 42.9261Z" fill="#F8EF25" stroke="#916740" stroke-width="4"/>
<path d="M52 42C54.5511 33.4779 56.2473 29.3826 58.5362 24.0661M68.4568 8.07027C67.2513 8.03739 68.2164 7.3442 65.4903 11.1225M65.4903 11.1225L83 16.4909L58.5362 24.0661M65.4903 11.1225C63.4701 13.9224 61.1126 18.0821 58.5362 24.0661" stroke="#916740" stroke-width="4"/>
</svg>
