<svg width="120" height="120" viewBox="0 0 120 120" fill="none" xmlns="http://www.w3.org/2000/svg">
<rect width="120" height="120" fill="#F5F5F5"/>
<rect width="120" height="120" rx="21" fill="#52D7F4" fill-opacity="0.22"/>
<path d="M89 73C89 85.3223 76.4395 96 60 96C43.5605 96 31 85.3223 31 73C31 60.6778 43.5605 50 60 50C76.4395 50 89 60.6778 89 73Z" fill="#F5FA1A" stroke="#430A0A" stroke-width="4"/>
<ellipse cx="60" cy="75" rx="31" ry="23" fill="#430A0A"/>
<mask id="path-4-inside-1_0_1" fill="white">
<path fill-rule="evenodd" clip-rule="evenodd" d="M32 71.5C32 61.4007 40.7447 52.9278 52.5336 50.6205C54.3908 52.6566 56.1701 54.8832 57.803 57.2253C55.6407 58.7927 53.7659 60.6328 52.17 62.7031C46.3817 70.2118 44.6161 80.3047 45.5749 90.1581C37.4633 86.4492 32 79.4826 32 71.5ZM70.3482 51.9856C66.8981 50.7112 63.0534 50 59 50C58.8675 50 58.7353 50.0008 58.6033 50.0023C59.8202 51.488 60.9947 53.0466 62.1075 54.6593C64.5713 53.4687 67.3155 52.5642 70.3482 51.9856ZM64.8199 58.913C68.3922 57.2864 72.7512 56.3105 78.0215 56.2413C82.9489 60.1364 86 65.5345 86 71.5C86 80.5474 78.982 88.2896 69.0444 91.463C71.8004 86.7269 72.2368 81.1439 71.2806 75.5736C70.3297 70.0335 67.9694 64.2811 64.8199 58.913ZM60.5094 61.4471C63.3851 66.3504 65.5153 71.5406 66.3527 76.4195C67.2423 81.6019 66.6351 86.1678 64.2438 89.7117C63.4721 90.8555 62.4832 91.939 61.2363 92.9273C60.4989 92.9754 59.753 93 59 93C56.1535 93 53.4098 92.6492 50.8335 91.999C49.4064 82.1862 50.938 72.4909 56.13 65.7557C57.3536 64.1684 58.8049 62.7148 60.5094 61.4471Z"/>
</mask>
<path fill-rule="evenodd" clip-rule="evenodd" d="M32 71.5C32 61.4007 40.7447 52.9278 52.5336 50.6205C54.3908 52.6566 56.1701 54.8832 57.803 57.2253C55.6407 58.7927 53.7659 60.6328 52.17 62.7031C46.3817 70.2118 44.6161 80.3047 45.5749 90.1581C37.4633 86.4492 32 79.4826 32 71.5ZM70.3482 51.9856C66.8981 50.7112 63.0534 50 59 50C58.8675 50 58.7353 50.0008 58.6033 50.0023C59.8202 51.488 60.9947 53.0466 62.1075 54.6593C64.5713 53.4687 67.3155 52.5642 70.3482 51.9856ZM64.8199 58.913C68.3922 57.2864 72.7512 56.3105 78.0215 56.2413C82.9489 60.1364 86 65.5345 86 71.5C86 80.5474 78.982 88.2896 69.0444 91.463C71.8004 86.7269 72.2368 81.1439 71.2806 75.5736C70.3297 70.0335 67.9694 64.2811 64.8199 58.913ZM60.5094 61.4471C63.3851 66.3504 65.5153 71.5406 66.3527 76.4195C67.2423 81.6019 66.6351 86.1678 64.2438 89.7117C63.4721 90.8555 62.4832 91.939 61.2363 92.9273C60.4989 92.9754 59.753 93 59 93C56.1535 93 53.4098 92.6492 50.8335 91.999C49.4064 82.1862 50.938 72.4909 56.13 65.7557C57.3536 64.1684 58.8049 62.7148 60.5094 61.4471Z" fill="#F5FA1A"/>
<path d="M52.5336 50.6205L53.2725 49.9466L52.8935 49.5311L52.3416 49.6391L52.5336 50.6205ZM57.803 57.2253L58.3899 58.035L59.1849 57.4588L58.6233 56.6534L57.803 57.2253ZM52.17 62.7031L52.962 63.3136L52.962 63.3136L52.17 62.7031ZM45.5749 90.1581L45.1591 91.0675L46.7384 91.7896L46.5702 90.0612L45.5749 90.1581ZM70.3482 51.9856L70.5356 52.9678L74.0686 52.2937L70.6947 51.0475L70.3482 51.9856ZM58.6033 50.0023L58.5919 49.0023L56.5113 49.0262L57.8297 50.6359L58.6033 50.0023ZM62.1075 54.6593L61.2844 55.2272L61.771 55.9325L62.5426 55.5597L62.1075 54.6593ZM64.8199 58.913L64.4055 58.003L63.3962 58.4625L63.9574 59.4191L64.8199 58.913ZM78.0215 56.2413L78.6416 55.4568L78.3632 55.2368L78.0083 55.2414L78.0215 56.2413ZM69.0444 91.463L68.1801 90.9601L66.873 93.2062L69.3486 92.4156L69.0444 91.463ZM71.2806 75.5736L70.295 75.7428L70.295 75.7428L71.2806 75.5736ZM66.3527 76.4195L65.3671 76.5887L66.3527 76.4195ZM60.5094 61.4471L61.372 60.9412L60.8077 59.9789L59.9126 60.6447L60.5094 61.4471ZM64.2438 89.7117L63.4149 89.1524L63.4149 89.1524L64.2438 89.7117ZM61.2363 92.9273L61.3015 93.9252L61.6129 93.9048L61.8574 93.711L61.2363 92.9273ZM50.8335 91.999L49.8439 92.1429L49.9402 92.8049L50.5888 92.9686L50.8335 91.999ZM56.13 65.7557L56.922 66.3663L56.922 66.3663L56.13 65.7557ZM52.3416 49.6391C40.2541 52.0048 31 60.7675 31 71.5H33C33 62.0339 41.2354 53.8507 52.7257 51.6019L52.3416 49.6391ZM58.6233 56.6534C56.9659 54.2761 55.1595 52.0155 53.2725 49.9466L51.7948 51.2944C53.6221 53.2978 55.3742 55.4902 56.9827 57.7973L58.6233 56.6534ZM57.2161 56.4157C54.9742 58.0408 53.0308 59.9485 51.378 62.0926L52.962 63.3136C54.5011 61.3171 56.3073 59.5446 58.3899 58.035L57.2161 56.4157ZM51.378 62.0926C45.3854 69.8663 43.6053 80.2418 44.5796 90.2549L46.5702 90.0612C45.627 80.3675 47.378 70.5573 52.962 63.3136L51.378 62.0926ZM31 71.5C31 79.976 36.7947 87.2431 45.1591 91.0675L45.9908 89.2486C38.1319 85.6553 33 78.9893 33 71.5H31ZM70.6947 51.0475C67.1321 49.7316 63.1699 49 59 49V51C62.9368 51 66.6641 51.6908 70.0017 52.9236L70.6947 51.0475ZM59 49C58.8637 49 58.7277 49.0008 58.5919 49.0023L58.6148 51.0022C58.743 51.0007 58.8714 51 59 51V49ZM57.8297 50.6359C59.0293 52.1006 60.1873 53.6372 61.2844 55.2272L62.9306 54.0914C61.8021 52.4559 60.6111 50.8754 59.3769 49.3686L57.8297 50.6359ZM70.1608 51.0033C67.0483 51.5972 64.2202 52.5278 61.6724 53.7589L62.5426 55.5597C64.9225 54.4097 67.5828 53.5312 70.5356 52.9678L70.1608 51.0033ZM65.2343 59.8231C68.6621 58.2623 72.8811 57.3089 78.0346 57.2412L78.0083 55.2414C72.6213 55.3121 68.1223 56.3105 64.4055 58.003L65.2343 59.8231ZM87 71.5C87 65.1725 83.7612 59.5038 78.6416 55.4568L77.4013 57.0258C82.1366 60.769 85 65.8964 85 71.5H87ZM69.3486 92.4156C79.5638 89.1536 87 81.1109 87 71.5H85C85 79.984 78.4002 87.4257 68.7402 90.5104L69.3486 92.4156ZM70.295 75.7428C71.2256 81.1639 70.782 86.4888 68.1801 90.9601L69.9087 91.966C72.8188 86.965 73.248 81.1239 72.2662 75.4044L70.295 75.7428ZM63.9574 59.4191C67.064 64.714 69.3698 70.3522 70.295 75.7428L72.2662 75.4044C71.2896 69.7148 68.8749 63.8483 65.6824 58.407L63.9574 59.4191ZM67.3383 76.2503C66.4748 71.2201 64.2892 65.9153 61.372 60.9412L59.6468 61.9529C62.4809 66.7854 64.5557 71.8612 65.3671 76.5887L67.3383 76.2503ZM65.0728 90.271C67.6533 86.4466 68.2555 81.594 67.3383 76.2503L65.3671 76.5887C66.229 81.6098 65.6169 85.889 63.4149 89.1524L65.0728 90.271ZM61.8574 93.711C63.1828 92.6606 64.2423 91.5019 65.0728 90.271L63.4149 89.1524C62.7019 90.2091 61.7837 91.2175 60.6152 92.1436L61.8574 93.711ZM59 94C59.7748 94 60.5423 93.9747 61.3015 93.9252L61.1712 91.9294C60.4554 91.9762 59.7313 92 59 92V94ZM50.5888 92.9686C53.2455 93.6391 56.0714 94 59 94V92C56.2355 92 53.5741 91.6593 51.0782 91.0294L50.5888 92.9686ZM51.8231 91.8551C50.4195 82.2043 51.9508 72.815 56.922 66.3663L55.338 65.1452C49.9252 72.1668 48.3932 82.1681 49.8439 92.1429L51.8231 91.8551ZM56.922 66.3663C58.0919 64.8486 59.4782 63.4604 61.1062 62.2494L59.9126 60.6447C58.1317 61.9693 56.6153 63.4882 55.338 65.1452L56.922 66.3663Z" fill="#430A0A" mask="url(#path-4-inside-1_0_1)"/>
<path d="M113.734 35.9816L67 40.8039L77.5052 20.8217L113.734 35.9816Z" fill="#D72D4B"/>
<path d="M62.5 54.5L78.5 22.5" stroke="#430A0A" stroke-width="3"/>
<path d="M12 95.5663C17.4023 97.4028 34.2359 99.974 58.3517 95.5663C82.4676 91.1586 100.166 93.4123 106 95.0902" stroke="#5293F4" stroke-width="5"/>
<path d="M13 104.08C18.4023 106.283 35.2359 109.369 59.3517 104.08C83.4676 98.7904 101.166 101.495 107 103.508" stroke="#5293F4" stroke-width="5"/>
</svg>
