<svg width="240" height="240" viewBox="0 0 240 240" fill="none" xmlns="http://www.w3.org/2000/svg">
<path d="M0 16C0 7.16344 7.16344 0 16 0H224C232.837 0 240 7.16344 240 16V224C240 232.837 232.837 240 224 240H16C7.16344 240 0 232.837 0 224V16Z" fill="#72A6F5"/>
<path d="M159.205 32.9619C159.692 32.3732 160.471 32.1128 161.213 32.2907L200.024 41.5891C202.061 42.0771 202.072 44.9707 200.04 45.4752L145.916 58.9042C144.227 59.3234 142.845 57.5336 143.679 56.0054L150.408 43.6683C150.469 43.5563 150.541 43.4505 150.622 43.3522L159.205 32.9619Z" fill="#F71674"/>
<path d="M179.5 147.66C179.5 149.029 178.483 151.232 175.989 153.908C173.56 156.515 169.938 159.346 165.249 161.964C155.879 167.195 142.38 171.5 126 171.5C109.611 171.5 94.5825 167.19 83.6719 161.923C78.2143 159.288 73.8328 156.436 70.8419 153.805C69.3451 152.488 68.2313 151.257 67.5026 150.168C66.7598 149.058 66.5 148.221 66.5 147.66C66.5 145.624 66.5124 144.08 67.2462 142.672C67.944 141.333 69.4472 139.874 73.0464 138.543C80.3501 135.841 95.3369 134 126 134C147.078 134 160.636 135.827 168.874 138.56C177.195 141.319 179.5 144.764 179.5 147.66Z" fill="#F8EF25"/>
<path d="M179.5 147.66C179.5 149.029 178.483 151.232 175.989 153.908C173.56 156.515 169.938 159.346 165.249 161.964C155.879 167.195 142.38 171.5 126 171.5C109.611 171.5 94.5825 167.19 83.6719 161.923C78.2143 159.288 73.8328 156.436 70.8419 153.805C69.3451 152.488 68.2313 151.257 67.5026 150.168C66.7598 149.058 66.5 148.221 66.5 147.66C66.5 145.624 66.5124 144.08 67.2462 142.672C67.944 141.333 69.4472 139.874 73.0464 138.543C80.3501 135.841 95.3369 134 126 134C147.078 134 160.636 135.827 168.874 138.56C177.195 141.319 179.5 144.764 179.5 147.66Z" fill="#916740"/>
<path d="M179.5 147.66C179.5 149.029 178.483 151.232 175.989 153.908C173.56 156.515 169.938 159.346 165.249 161.964C155.879 167.195 142.38 171.5 126 171.5C109.611 171.5 94.5825 167.19 83.6719 161.923C78.2143 159.288 73.8328 156.436 70.8419 153.805C69.3451 152.488 68.2313 151.257 67.5026 150.168C66.7598 149.058 66.5 148.221 66.5 147.66C66.5 145.624 66.5124 144.08 67.2462 142.672C67.944 141.333 69.4472 139.874 73.0464 138.543C80.3501 135.841 95.3369 134 126 134C147.078 134 160.636 135.827 168.874 138.56C177.195 141.319 179.5 144.764 179.5 147.66Z" fill="black" fill-opacity="0.2"/>
<path d="M179.5 147.66C179.5 149.029 178.483 151.232 175.989 153.908C173.56 156.515 169.938 159.346 165.249 161.964C155.879 167.195 142.38 171.5 126 171.5C109.611 171.5 94.5825 167.19 83.6719 161.923C78.2143 159.288 73.8328 156.436 70.8419 153.805C69.3451 152.488 68.2313 151.257 67.5026 150.168C66.7598 149.058 66.5 148.221 66.5 147.66C66.5 145.624 66.5124 144.08 67.2462 142.672C67.944 141.333 69.4472 139.874 73.0464 138.543C80.3501 135.841 95.3369 134 126 134C147.078 134 160.636 135.827 168.874 138.56C177.195 141.319 179.5 144.764 179.5 147.66Z" stroke="#C41C1C" stroke-width="3"/>
<path d="M181 147C181 148.98 179.758 151.565 176.868 154.467C174.028 157.319 169.834 160.231 164.54 162.849C153.961 168.081 139.265 172 123 172C106.735 172 92.0392 168.081 81.4601 162.849C76.1662 160.231 71.9717 157.319 69.1323 154.467C66.2421 151.565 65 148.98 65 147C65 145.114 66.1448 142.999 68.953 140.786C71.7387 138.591 75.8936 136.526 81.206 134.755C91.8101 131.221 106.587 129 123 129C139.413 129 154.19 131.221 164.794 134.755C170.106 136.526 174.261 138.591 177.047 140.786C179.855 142.999 181 145.114 181 147Z" fill="#F8EF25" stroke="#916740" stroke-width="4"/>
<path d="M65 105V147" stroke="#916740" stroke-width="4"/>
<path d="M181 105V147" stroke="#916740" stroke-width="4"/>
<rect x="67" y="106" width="112" height="40" fill="#F8EF25"/>
<path d="M181 105C181 105.927 180.2 107.384 177.267 109.117C174.469 110.771 170.286 112.33 164.941 113.666C154.284 116.331 139.454 118 123 118C106.546 118 91.7163 116.331 81.0587 113.666C75.7145 112.33 71.5315 110.771 68.7328 109.117C65.8001 107.384 65 105.927 65 105C65 104.508 65.2031 103.8 65.8569 102.867C66.5061 101.94 67.5243 100.904 68.9416 99.8036C71.7754 97.6037 75.9794 95.322 81.2973 93.2579C91.9167 89.136 106.671 86 123 86C139.329 86 154.083 89.136 164.703 93.2579C170.021 95.322 174.225 97.6037 177.058 99.8036C178.476 100.904 179.494 101.94 180.143 102.867C180.797 103.8 181 104.508 181 105Z" fill="#F8EF25" stroke="#916740" stroke-width="4"/>
<path d="M124 101C130.666 81.7855 135.098 72.552 141.079 60.5651M167 24.5C163.85 24.4259 166.372 22.863 159.249 31.3818M159.249 31.3818L205 43.4857L141.079 60.5651M159.249 31.3818C153.97 37.6946 147.81 47.0734 141.079 60.5651" stroke="#916740" stroke-width="4"/>
<path d="M19 185.619C95.8876 210.217 116.5 169.619 220.5 179.619" stroke="#474091" stroke-opacity="0.7" stroke-width="4"/>
<path d="M18.5 170C95.3876 194.598 116 154 220 164" stroke="#474091" stroke-opacity="0.7" stroke-width="4"/>
</svg>
